<svg xmlns="http://www.w3.org/2000/svg" viewBox="0 0 168 168" id="brain"><path fill="#2d4356" d="M108.81445,98.72116a15.16512,15.16512,0,0,0,3.65625-27.7417,10.59808,10.59808,0,0,0-10.39648-8.89355,10.48273,10.48273,0,0,0-1.34564.08691c-.04822.00623-1.3335-1.91785-1.509-2.1084a10.57124,10.57124,0,0,0-2.19849-1.81848,10.50455,10.50455,0,0,0-11.07678-.00281A10.437,10.437,0,0,0,71.40527,59.8237a10.36491,10.36491,0,0,0-2.47559-.29785A10.54361,10.54361,0,0,0,58.873,66.98239a10.71768,10.71768,0,0,0-7.33643,13.56689,10.76133,10.76133,0,0,0-.50439,15.46338,2.67324,2.67324,0,0,0,.06885.36133c2.67822,10.07422,10.45361,11.35693,10.7832,11.40625a2,2,0,0,0,.61523-3.95215,9.57727,9.57727,0,0,1-6.18311-5.06677,9.383,9.383,0,0,0,4.85938-.2887,1.99991,1.99991,0,1,0-1.249-3.7998,5.58071,5.58071,0,0,1-6.00439-1.70605,1.98559,1.98559,0,0,0-.64886-.50037A6.74075,6.74075,0,0,1,52,88.52158c-.00006-4.00006,4.028-7.73663,8.05518-6.34192a1.9999,1.9999,0,1,0,1.3125-3.77832,9.5652,9.5652,0,0,0-6.234-.00873,6.72163,6.72163,0,0,1-.09949-1.09235,6.642,6.642,0,0,1,5.73291-6.62354,2.00042,2.00042,0,0,0,1.71729-1.6416,6.56636,6.56636,0,0,1,5.94385-5.46387c.05066.00385.09924.01514.15088.01514l.09082-.00049a5.66993,5.66993,0,0,1,5.31445,3.79291,2.033,2.033,0,0,0,2.55615,1.21051A2,2,0,0,0,77.751,66.03317a9.70282,9.70282,0,0,0-2.84009-4.11981,6.41754,6.41754,0,0,1,8.50134-.56934A9.78257,9.78257,0,0,0,82,66.40524a2,2,0,0,0,4,.00012,5.81552,5.81552,0,0,1,4.895-5.66663c2.94751-.52173,5.84082,1.66327,6.77393,4.37927.705,2.05182,2.89825.9679,4.40533.9679a6.58019,6.58019,0,0,1,6.37183,5.18384,1.97212,1.97212,0,0,0-.06519.20679,5.70809,5.70809,0,0,1-4.8125,4.52832,2.0006,2.0006,0,0,0-1.72363,2.24268,2.03753,2.03753,0,0,0,2.24316,1.72314,9.66112,9.66112,0,0,0,7.21838-4.98938,11.21429,11.21429,0,0,1,4.598,10.60608,11.07389,11.07389,0,0,1-8.09961,9.2627,10.5764,10.5764,0,0,1-6.22266-.24121,1.99837,1.99837,0,0,0-2.02246.43408A6.462,6.462,0,0,1,95.123,96.81882c-.52533,0-.9942-.01062-1.4267-.03375a9.85325,9.85325,0,0,0,2.82611-9.64935,2.00012,2.00012,0,0,0-3.875.99316,5.78447,5.78447,0,0,1-4.05566,7.04541c-.02765.00732-.05151.02106-.07855.02942l-1.95367.34412a12.817,12.817,0,0,0-7.92969,3.70361c-1.73,1.82959-1.73,4.01465-1.73,5.94873V118a2,2,0,0,0,4,0V105.19382c0-1.60986.02979-2.55225.63574-3.19336A8.79822,8.79822,0,0,1,87.085,99.51364c.03809-.00439.07617-.01025.11328-.0166l1.292-.22754c1.92578,1.41748,4.2373,1.54932,6.63281,1.54932a10.41165,10.41165,0,0,0,6.26074-2.09229A14.48243,14.48243,0,0,0,108.81445,98.72116Z"></path><path fill="#0bceb2" d="M41.49316 81.16306a1.9961 1.9961 0 0 0 2.36475-1.55127q.09741-.46729.20508-.93164a1.99991 1.99991 0 0 0-3.89648-.90332q-.11792.5083-.22461 1.02148A1.99924 1.99924 0 0 0 41.49316 81.16306zM60.6123 51.85349a2.021 2.021 0 0 0 2.73535.71973q.41089-.24023.82813-.47119a1.99982 1.99982 0 1 0-1.9375-3.499q-.4563.252-.90625.51514A2 2 0 0 0 60.6123 51.85349zM79.29785 47.25388c.38721 0 .78131-.07135 1.167-.104a1.99987 1.99987 0 0 0-.33887-3.98535q-.52368.04468-1.043.10107a2.00006 2.00006 0 0 0 .21484 3.98828z"></path><path fill="#2d4356" d="M54.5376 53.98434q-.39624.34277-.7832.69531a1.99976 1.99976 0 0 0-.13477 2.8252 2.02366 2.02366 0 0 0 2.8252.13477q.35229-.32007.71191-.63184a2.00007 2.00007 0 1 0-2.61914-3.02344zM70.52313 49.14841a1.90528 1.90528 0 0 0 .62579-.09473q.45264-.14941.90967-.28809a2.00013 2.00013 0 1 0-1.16406-3.82715q-.501.15234-.99658.31543a2.00041 2.00041 0 0 0-1.27441 2.52533A2.04663 2.04663 0 0 0 70.52313 49.14841zM43.835 72.48093a1.99892 1.99892 0 0 0 2.6377-1.02148q.19336-.43872.397-.87207a2 2 0 0 0-3.62207-1.69727q-.22192.47388-.43408.95313A2.00035 2.00035 0 0 0 43.835 72.48093z"></path><path fill="#0bceb2" d="M47.94238,64.47849a2.00047,2.00047,0,0,0,2.79248-.45068q.27905-.38672.56641-.76562a1.99994,1.99994,0,0,0-3.18555-2.41895q-.31714.41748-.624.84277A2.00034,2.00034,0,0,0,47.94238,64.47849Z"></path><path fill="#2d4356" d="M39.00879,87.103Q39,87.55051,39,88v.14063a2,2,0,0,0,4,0V88c0-.27441.00293-.54883.00781-.82178a1.99987,1.99987,0,1,0-3.999-.0752Z"></path><path fill="#0bceb2" d="M125,87.74069c0,.40417-.0011.80829-.01074,1.2124a1.99939,1.99939,0,0,0,1.95215,2.04639L126.98926,91a1.99929,1.99929,0,0,0,1.998-1.95312c.01135-.44934.0127-.89874.0127-1.34814a2.00011,2.00011,0,0,0-4,.042Z"></path><path fill="#2d4356" d="M124.05762,79.22214q.10254.46436.19238.93164a2.00046,2.00046,0,0,0,3.92773-.76172q-.10107-.51489-.21191-1.02637a2.00047,2.00047,0,0,0-3.9082.85645Z"></path><path fill="#0bceb2" d="M121.36426,71.09665q.19629.43506.38477.875a2.00024,2.00024,0,0,0,3.67773-1.57422q-.20508-.47754-.418-.94922a2,2,0,0,0-3.64453,1.64844Z"></path><path fill="#2d4356" d="M117.459 60.915a2.00058 2.00058 0 0 0-.42578 2.79639q.28271.38379.55664.77393a2.00024 2.00024 0 1 0 3.27539-2.29687q-.30029-.42773-.60937-.84814A2.00057 2.00057 0 0 0 117.459 60.915zM126.48535 94.97556a1.99813 1.99813 0 0 0-2.37109 1.5415q-.09961.46875-.209.93359a2.00029 2.00029 0 1 0 3.89453.915q.11865-.50757.22656-1.01855A1.99956 1.99956 0 0 0 126.48535 94.97556zM88.47754 43.22018a1.99989 1.99989 0 0 0-.39258 3.98047c.39435.03888.79681.11963 1.19336.11963a2.00009 2.00009 0 0 0 .24023-3.98535Q88.99854 43.27121 88.47754 43.22018z"></path><path fill="#0bceb2" d="M96.46973,48.93015a5.33366,5.33366,0,0,0,1.55859.41064,2.00027,2.00027,0,0,0,.65234-3.89111q-.49512-.17139-.998-.33105a1.99993,1.99993,0,1,0-1.21289,3.81152Z"></path><path fill="#2d4356" d="M104.31249,52.37595a3.82612,3.82612,0,0,0,1.85353.77051,2.0006,2.0006,0,0,0,1.03418-3.71387q-.44971-.27026-.90527-.53027a1.99976,1.99976,0,1,0-1.98243,3.47363Z"></path><path fill="#0bceb2" d="M111.10156 54.55661a1.99941 1.99941 0 0 0 .16406 2.82324q.356.31714.7041.64209a1.99991 1.99991 0 1 0 2.73047-2.92285q-.38379-.35889-.77441-.70654A1.99914 1.99914 0 0 0 111.10156 54.55661zM96.72461 126.98727q-.4541.14795-.91212.28564a2.00037 2.00037 0 0 0 .57618 3.91553 5.30719 5.30719 0 0 0 1.57422-.39746 2.0001 2.0001 0 0 0-1.23828-3.80371zM63.57227 123.55661q-.41309-.2373-.81982-.48486a2.00007 2.00007 0 0 0-2.07812 3.418q.449.27246.90381.53467a2.00013 2.00013 0 1 0 1.99414-3.46777zM79.37793 132.76559c.06836.00684.13672.01025.2041.01025a2 2 0 0 0 .19922-3.98975q-.47388-.04834-.94531-.10742a2 2 0 0 0-.499 3.96875Q78.85547 132.71262 79.37793 132.76559z"></path><path fill="#2d4356" d="M71.40479 127.02975q-.4563-.14722-.9082-.30469a1.99992 1.99992 0 0 0-1.31543 3.77734q.49438.17212.99414.334a2.00014 2.00014 0 0 0 1.22949-3.80664zM55.29883 122.02048a2 2 0 0 0 1.33643-3.48828q-.356-.31934-.70459-.647a2.00013 2.00013 0 1 0-2.73633 2.918q.38086.35669.769.70557A1.99271 1.99271 0 0 0 55.29883 122.02048zM107.26953 124.22067a1.99959 1.99959 0 0 0-2.7334-.72656c-.27441.15869-.55176.31494-.8291.46826a1.9996 1.9996 0 1 0 1.92773 3.50391q.457-.25049.90723-.51221A2.00007 2.00007 0 0 0 107.26953 124.22067zM88.35254 128.77145q-.47461.0498-.95117.08936a2 2 0 0 0 .16211 3.99316 11.72049 11.72049 0 0 0 1.20508-.104 2.0001 2.0001 0 1 0-.416-3.97852z"></path><path fill="#0bceb2" d="M111.45605 118.44968q-.353.31934-.71387.62988a1.99983 1.99983 0 1 0 2.60938 3.03125q.39844-.342.78613-.69238a2.00029 2.00029 0 0 0-2.68164-2.96875zM50.45166 114.976a2.00021 2.00021 0 0 0 .43457-2.79492q-.28125-.38452-.55371-.77588a2 2 0 1 0-3.28223 2.28613q.29883.42847.60645.8501a2.00019 2.00019 0 0 0 2.79492.43457z"></path><path fill="#2d4356" d="M119.98047,111.63815a2.00051,2.00051,0,0,0-2.79395.44189q-.27979.38525-.56934.76416a2.00027,2.00027,0,0,0,3.17969,2.42773q.31641-.41528.626-.84033A1.99982,1.99982,0,0,0,119.98047,111.63815Z"></path><path fill="#0bceb2" d="M124.11133,103.64841a2.00248,2.00248,0,0,0-2.63965,1.01611q-.19189.43359-.39648.86182a2.00016,2.00016,0,1,0,3.61133,1.7207q.22705-.47607.44141-.95947A1.9996,1.9996,0,0,0,124.11133,103.64841Z"></path><path fill="#2d4356" d="M46.58057,104.7822q-.19409-.43433-.37988-.874a2.00014,2.00014,0,1,0-3.68457,1.55762q.20288.479.415.95313a1.99982,1.99982,0,1,0,3.64941-1.63672Z"></path><path fill="#0bceb2" d="M43.91406,96.64987c-.06689-.31006-.12939-.62158-.18945-.93457a1.99983,1.99983,0,0,0-3.92871.75q.09741.51343.207,1.02441a2.00014,2.00014,0,1,0,3.91113-.83984Z"></path><path fill="#2d4356" d="M84,36a6,6,0,1,0-6-6A6.00656,6.00656,0,0,0,84,36Zm0-8a2,2,0,1,1-2,2A2.00229,2.00229,0,0,1,84,28Z"></path><path fill="#0bceb2" d="M32 88a6 6 0 1 0-6 6A6.00656 6.00656 0 0 0 32 88zm-6 2a2 2 0 1 1 2-2A2.002 2.002 0 0 1 26 90zM113 132.23087a6 6 0 1 0 6 6A6.00656 6.00656 0 0 0 113 132.23087zm0 8a2 2 0 1 1 2-2A2.002 2.002 0 0 1 113 140.23087z"></path><path fill="#2d4356" d="M134.22949 111.00137a6 6 0 1 0 6 6A6.00656 6.00656 0 0 0 134.22949 111.00137zm0 8a2 2 0 1 1 2-2A2.002 2.002 0 0 1 134.22949 119.00137zM134.22949 65.00131a6 6 0 1 0-6-6A6.00656 6.00656 0 0 0 134.22949 65.00131zm0-8a2 2 0 1 1-2 2A2.00229 2.00229 0 0 1 134.22949 57.00131z"></path><path fill="#0bceb2" d="M113 43.77042a6 6 0 1 0-6-6A6.00656 6.00656 0 0 0 113 43.77042zm0-8a2 2 0 1 1-2 2A2.00229 2.00229 0 0 1 113 35.77042zM142 82a6 6 0 1 0 6 6A6.00656 6.00656 0 0 0 142 82zm0 8a2 2 0 1 1 2-2A2.00229 2.00229 0 0 1 142 90zM55 43.77017a6 6 0 1 0-6-6A6.00656 6.00656 0 0 0 55 43.77017zm0-8a2 2 0 1 1-2 2A2.00229 2.00229 0 0 1 55 35.77017z"></path><path fill="#2d4356" d="M33.76862 64.99954a6 6 0 1 0-6-6A6.00656 6.00656 0 0 0 33.76862 64.99954zm0-8a2 2 0 1 1-2 2A2.00229 2.00229 0 0 1 33.76862 56.99954zM33.77051 111.002a6 6 0 1 0 6 6A6.00656 6.00656 0 0 0 33.77051 111.002zm0 8a2 2 0 1 1 2-2A2.002 2.002 0 0 1 33.77051 119.002z"></path><path fill="#0bceb2" d="M54.99817,132.231a6,6,0,1,0,6,6A6.00656,6.00656,0,0,0,54.99817,132.231Zm0,8a2,2,0,1,1,2-2A2.002,2.002,0,0,1,54.99817,140.231Z"></path><circle cx="2" cy="150" r="2" fill="#2d4356"></circle><path fill="#2d4356" d="M11 148H8a2 2 0 0 0 0 4h3a2 2 0 0 0 0-4zM160 148h-3a2 2 0 0 0 0 4h3a2 2 0 0 0 0-4z"></path><circle cx="166" cy="150" r="2" fill="#2d4356"></circle><path fill="#0bceb2" d="M118.15387 156h-8.30774a2.00641 2.00641 0 0 0 0 4h8.30774a2.00641 2.00641 0 0 0 0-4zM58.15387 156H49.84613a2.00641 2.00641 0 0 0 0 4h8.30774a2.00641 2.00641 0 0 0 0-4zM104 156H64a2 2 0 0 0 0 4H79.94v2H72a2 2 0 0 0 0 4H97a2 2 0 0 0 0-4H88.06v-2H104a2 2 0 0 0 0-4z"></path><path fill="#2d4356" d="M150.72131 148H89.65A6 6 0 1 0 78.35 148H17.27869a2.017 2.017 0 1 0 0 4H150.72131a2.017 2.017 0 1 0 0-4zM82 146a2 2 0 1 1 2 2A2.002 2.002 0 0 1 82 146zM68.30471 8a3 3 0 1 0-3-3A3.00344 3.00344 0 0 0 68.30471 8zm0-4.5a1.5 1.5 0 1 1-1.5 1.5A1.50148 1.50148 0 0 1 68.30471 3.5zM162.05471 62a2 2 0 1 0 2 2A2.00229 2.00229 0 0 0 162.05471 62zm0 3a1 1 0 1 1 1-1A1.001 1.001 0 0 1 162.05471 65zM141.5 2a2 2 0 1 0 2 2A2.00229 2.00229 0 0 0 141.5 2zm0 3a1 1 0 1 1 1-1A1.001 1.001 0 0 1 141.5 5zM146 40a2 2 0 1 0 2 2A2.00229 2.00229 0 0 0 146 40zm0 3a1 1 0 1 1 1-1A1.001 1.001 0 0 1 146 43zM38.75 20.25a2 2 0 1 0-2 2A2.00229 2.00229 0 0 0 38.75 20.25zm-3 0a1 1 0 1 1 1 1A1.001 1.001 0 0 1 35.75 20.25z"></path><polygon fill="#0bceb2" points="11.173 47.218 12.66 45.262 11.721 44.73 10.767 46.92 10.735 46.92 9.765 44.746 8.81 45.293 10.281 47.202 10.281 47.234 7.98 46.936 7.98 48 10.296 47.703 10.296 47.734 8.81 49.643 9.702 50.206 10.719 48 10.75 48 11.689 50.191 12.675 49.627 11.173 47.75 11.173 47.718 13.535 48 13.535 46.936 11.173 47.249 11.173 47.218"></polygon><polygon fill="#0bceb2" points="9.759 9.806 8.903 10.905 9.416 11.23 10.002 9.959 10.02 9.959 10.561 11.221 11.129 10.897 10.264 9.815 10.264 9.797 11.624 9.959 11.624 9.347 10.264 9.527 10.264 9.509 11.12 8.383 10.579 8.076 10.029 9.338 10.011 9.338 9.453 8.085 8.903 8.401 9.75 9.5 9.75 9.518 8.425 9.347 8.425 9.959 9.759 9.788 9.759 9.806"></polygon><polygon fill="#0bceb2" points="164.817 22.746 164.817 21.702 162.5 22.009 162.5 21.978 163.958 20.06 163.037 19.538 162.101 21.687 162.07 21.687 161.119 19.553 160.182 20.091 161.625 21.963 161.625 21.994 159.368 21.702 159.368 22.746 161.64 22.454 161.64 22.485 160.182 24.357 161.057 24.91 162.055 22.746 162.085 22.746 163.006 24.894 163.973 24.342 162.5 22.5 162.5 22.469 164.817 22.746"></polygon><polygon fill="#0bceb2" points="116.748 19.586 118.006 17.931 117.211 17.481 116.404 19.334 116.377 19.334 115.557 17.494 114.748 17.958 115.993 19.573 115.993 19.599 114.047 19.348 114.047 20.248 116.006 19.996 116.006 20.023 114.748 21.638 115.503 22.115 116.364 20.248 116.39 20.248 117.185 22.101 118.019 21.625 116.748 20.036 116.748 20.009 118.746 20.248 118.746 19.348 116.748 19.612 116.748 19.586"></polygon></svg>