<svg xmlns="http://www.w3.org/2000/svg" viewBox="0 0 64 64" id="ai-brain"><path fill="#00bebd" d="M30 0v64a7 7 0 0 1-7-7.54 9 9 0 0 1-12.34-12.7 11 11 0 0 1 .24-21.56A10 10 0 0 1 20 8c2.21 0 2 .46 2 0a8 8 0 0 1 8-8Z"></path><path fill="#d9d9d9" d="M36 0a3 3 0 0 0-1 5.82V10a1 1 0 0 0 2 0V5.82A3 3 0 0 0 36 0zm0 4a1 1 0 0 1 0-2 1 1 0 0 1 0 2zm10-4a3 3 0 0 0-1 5.82V10a1 1 0 0 0 2 0V5.82A3 3 0 0 0 46 0zm0 4a1 1 0 0 1 0-2 1 1 0 0 1 0 2zm-9 54.18V54a1 1 0 0 0-2 0v4.18a3 3 0 1 0 2 0zM36 62a1 1 0 0 1 0-2 1 1 0 0 1 0 2zm11-3.82V54a1 1 0 0 0-2 0v4.18a3 3 0 1 0 2 0zM46 62a1 1 0 0 1 0-2 1 1 0 0 1 0 2zm6-44h4.18a3 3 0 1 0 0-2H52a1 1 0 0 0 0 2zm7-2a1 1 0 0 1 0 2 1 1 0 0 1 0-2zm-2.82 10H52a1 1 0 0 0 0 2h4.18a3 3 0 1 0 0-2zM59 28a1 1 0 0 1 0-2 1 1 0 0 1 0 2zm-2.82 8H52a1 1 0 0 0 0 2h4.18a3 3 0 1 0 0-2zM59 38a1 1 0 0 1 0-2 1 1 0 0 1 0 2zm-2.82 8H52a1 1 0 0 0 0 2h4.18a3 3 0 1 0 0-2zM59 48a1 1 0 0 1 0-2 1 1 0 0 1 0 2z"></path><path fill="#ffac00" d="M30 10h18a4 4 0 0 1 4 4v36a4 4 0 0 1-4 4H30V10Z"></path><path fill="#f3f3f3" d="M30 17h15a1 1 0 0 1 1 1v28a1 1 0 0 1-1 1H30V17Z"></path><path fill="#00aaa8" d="M24.82 15a3 3 0 1 0 0 2H30v-2zM22 17a1 1 0 0 1 0-2 1 1 0 0 1 0 2zm4 9a3 3 0 0 0-3 3v3a1 1 0 0 1-1 1h-4.18a3 3 0 1 0 0 2H22a3 3 0 0 0 3-3v-3a1 1 0 0 1 1-1h4v-2zm-11 9a1 1 0 0 1 0-2 1 1 0 0 1 0 2zm10 15a1 1 0 0 1-1-1v-2.18a3 3 0 1 0-2 0V49a3 3 0 0 0 3 3h5v-2zm-2-5a1 1 0 0 1 0-2 1 1 0 0 1 0 2z"></path></svg>